HIERARCHY
ROOT joint_Root
{
	OFFSET 0.0 0.0 0.0
	CHANNELS 6 Xposition Yposition Zposition Zrotation Xrotation Yrotation 
	JOINT Hips
	{
		OFFSET -0.726466 93.3139 -2.00062
		CHANNELS 6 Xposition Yposition Zposition Zrotation Xrotation Yrotation 
		JOINT Spine
		{
			OFFSET 15.7357 0.0 0.0
			CHANNELS 6 Xposition Yposition Zposition Zrotation Xrotation Yrotation 
			JOINT Chest
			{
				OFFSET 8.98455 -0.406207 0.0
				CHANNELS 6 Xposition Yposition Zposition Zrotation Xrotation Yrotation 
				JOINT Neck
				{
					OFFSET 16.3773 0.0 0.0
					CHANNELS 6 Xposition Yposition Zposition Zrotation Xrotation Yrotation 
					JOINT Head
					{
						OFFSET 6.45672 0.0 0.0
						CHANNELS 6 Xposition Yposition Zposition Zrotation Xrotation Yrotation 
						End Site
						{
							OFFSET 0.0 0.0 0.0
						}
					}
				}
				JOINT Shoulder_L
				{
					OFFSET 12.9942 -0.242716 4.98039
					CHANNELS 6 Xposition Yposition Zposition Zrotation Xrotation Yrotation 
					JOINT UpperArm_L
					{
						OFFSET 5.34809 0.0 0.0
						CHANNELS 6 Xposition Yposition Zposition Zrotation Xrotation Yrotation 
						JOINT LowerArm_L
						{
							OFFSET 24.3286 1.87007e-05 0.0
							CHANNELS 6 Xposition Yposition Zposition Zrotation Xrotation Yrotation 
							JOINT Hand_L
							{
								OFFSET 22.2916 0.0 0.0
								CHANNELS 6 Xposition Yposition Zposition Zrotation Xrotation Yrotation 
								End Site
								{
									OFFSET 0.0 0.0 0.0
								}
							}
						}
					}
				}
				JOINT Shoulder_R
				{
					OFFSET 12.9945 -0.242716 -4.98039
					CHANNELS 6 Xposition Yposition Zposition Zrotation Xrotation Yrotation 
					JOINT UpperArm_R
					{
						OFFSET -5.34813 0.0 0.0
						CHANNELS 6 Xposition Yposition Zposition Zrotation Xrotation Yrotation 
						JOINT LowerArm_R
						{
							OFFSET -24.3289 0.000322201 0.0
							CHANNELS 6 Xposition Yposition Zposition Zrotation Xrotation Yrotation 
							JOINT Hand_R
							{
								OFFSET -22.2915 -0.000108084 0.0
								CHANNELS 6 Xposition Yposition Zposition Zrotation Xrotation Yrotation 
								End Site
								{
									OFFSET 0.0 0.0 0.0
								}
							}
						}
					}
				}
			}
		}
		JOINT UpperLeg_L
		{
			OFFSET -2.19248 -6.46944 0.0
			CHANNELS 6 Xposition Yposition Zposition Zrotation Xrotation Yrotation 
			JOINT LowerLeg_L
			{
				OFFSET 39.0811 0.0 -1.23785e-05
				CHANNELS 6 Xposition Yposition Zposition Zrotation Xrotation Yrotation 
				JOINT Foot_L
				{
					OFFSET 40.9854 0.0 -1.26872e-05
					CHANNELS 6 Xposition Yposition Zposition Zrotation Xrotation Yrotation 
					JOINT Toes_L
					{
						OFFSET 11.7543 0.0 0.0
						CHANNELS 6 Xposition Yposition Zposition Zrotation Xrotation Yrotation 
						End Site
						{
							OFFSET 0.0 0.0 0.0
						}
					}
				}
			}
		}
		JOINT UpperLeg_R
		{
			OFFSET -2.19251 6.46944 0.0
			CHANNELS 6 Xposition Yposition Zposition Zrotation Xrotation Yrotation 
			JOINT LowerLeg_R
			{
				OFFSET -39.0811 -0.00228153 -0.0401928
				CHANNELS 6 Xposition Yposition Zposition Zrotation Xrotation Yrotation 
				JOINT Foot_R
				{
					OFFSET -40.9854 0.0 0.0
					CHANNELS 6 Xposition Yposition Zposition Zrotation Xrotation Yrotation 
					JOINT Toes_R
					{
						OFFSET -11.7543 0.0 0.0
						CHANNELS 6 Xposition Yposition Zposition Zrotation Xrotation Yrotation 
						End Site
						{
							OFFSET 0.0 0.0 0.0
						}
					}
				}
			}
		}
	}
}
MOTION
Frames:	4
Frame Time:	0.0333333
0.000000 0.000000 0.000000 0.000000 0.000000 -0.000000 0.535466 92.282200 -445.105000 88.855100 -3.419390 3.884830 15.735700 0.000005 -0.000001 96.066000 83.201700 -95.339200 8.984550 -0.406207 -0.000000 5.747200 1.420410 1.380640 16.377300 -0.000001 -0.000001 0.863641 -2.088410 0.586034 6.456720 -0.000001 -0.000000 2.027990 -3.864650 -0.222753 12.994200 -0.242716 4.980390 -88.749300 -3.622850 -70.938900 5.348090 -0.000007 -0.000001 -76.331600 29.740600 -3.561190 24.328600 0.000019 0.000005 1.808720 7.129730 -14.274200 22.291600 -0.000001 0.000005 6.767840 5.400500 -2.954380 12.994500 -0.242716 -4.980390 88.648000 4.696270 -73.920300 -5.348130 -0.000001 -0.000004 -63.034400 37.754300 -24.738100 -24.328900 0.000322 -0.000009 2.564440 7.198740 -19.679500 -22.291500 -0.000108 -0.000004 11.303400 5.359410 -1.661550 -2.192480 -6.469440 -0.000000 -178.530000 -7.239010 -20.185500 39.081100 -0.000007 -0.000012 -0.069043 0.039740 60.078700 40.985400 -0.000006 -0.000013 5.698680 -6.296520 -54.951400 11.754300 -0.000000 0.000003 -0.006047 -0.071272 -19.477500 -2.192510 6.469440 -0.000001 -174.657000 13.749200 176.491000 -39.081100 -0.002282 -0.040193 0.047803 -0.111942 21.672500 -40.985400 0.000008 0.000006 9.980810 -1.426760 -63.776300 -11.754300 -0.000006 -0.000006 -0.014021 -0.131559 -21.939200
0.000000 0.000000 0.000000 0.000000 0.000000 -0.000000 0.580424 92.509900 -442.079000 89.544800 -5.218030 3.454550 15.735700 0.000005 -0.000001 98.969000 83.164700 -98.623800 8.984550 -0.406207 -0.000000 5.734270 2.119840 0.583515 16.377300 -0.000001 -0.000001 0.633268 -1.648310 0.167397 6.456720 -0.000001 -0.000000 1.946350 -3.792100 -0.843151 12.994200 -0.242716 4.980390 -88.818200 -3.308890 -70.331700 5.348090 -0.000007 -0.000001 -76.397900 27.285500 -1.615310 24.328600 0.000019 0.000005 1.796490 7.478930 -13.548100 22.291600 -0.000001 0.000005 7.789740 5.396210 -2.813840 12.994500 -0.242716 -4.980390 88.746800 4.557200 -74.606500 -5.348130 -0.000001 -0.000004 -60.028800 38.180300 -29.041300 -24.328900 0.000322 -0.000009 2.413670 5.588250 -23.419100 -22.291500 -0.000108 -0.000004 11.633700 5.373180 -2.084310 -2.192480 -6.469440 -0.000000 -179.428000 -7.618270 -21.748400 39.081100 -0.000007 -0.000012 -0.041838 0.034254 50.695100 40.985400 -0.000006 -0.000013 5.248950 -5.318950 -56.231300 11.754300 -0.000000 0.000003 -0.005039 -0.061850 -19.093300 -2.192510 6.469440 -0.000001 -176.355000 14.874300 179.659000 -39.081100 -0.002282 -0.040193 0.028781 -0.073951 18.995900 -40.985400 0.000008 0.000006 9.233590 1.696500 -64.757200 -11.754300 -0.000006 -0.000006 -0.011878 -0.117175 -21.349700
0.000000 0.000000 0.000000 0.000000 0.000000 -0.000000 0.549258 92.401700 -439.054000 89.728100 -6.584640 2.721030 15.735700 0.000005 -0.000001 101.502000 83.245900 -101.342000 8.984550 -0.406207 -0.000000 5.471840 2.684140 0.192251 16.377300 -0.000001 -0.000001 0.394239 -1.264950 -0.100371 6.456720 -0.000001 -0.000000 1.870440 -3.896240 -1.515260 12.994200 -0.242716 4.980390 -88.856700 -3.124320 -69.888500 5.348090 -0.000007 -0.000001 -76.446700 25.355300 -0.097254 24.328600 0.000019 0.000005 1.795870 7.756580 -13.078300 22.291600 -0.000001 0.000005 8.614610 5.393910 -2.740410 12.994500 -0.242716 -4.980390 88.786000 4.516000 -74.936200 -5.348130 -0.000001 -0.000004 -56.719800 38.338600 -33.104100 -24.328900 0.000322 -0.000009 2.290310 4.495800 -27.048600 -22.291500 -0.000108 -0.000004 12.359500 5.393870 -2.738080 -2.192480 -6.469440 -0.000000 -179.396000 -7.951830 -22.765400 39.081100 -0.000007 -0.000012 -0.019015 0.023225 39.311000 40.985400 -0.000006 -0.000013 3.564130 -4.585160 -54.510700 11.754300 -0.000000 0.000003 -0.004853 -0.060046 -19.019800 -2.192510 6.469440 -0.000001 -177.586000 16.178900 -177.778000 -39.081100 -0.002282 -0.040193 0.018897 -0.050204 17.231100 -40.985400 0.000008 0.000006 9.226350 4.330090 -66.454600 -11.754300 -0.000006 -0.000006 -0.011066 -0.111439 -21.114800
0.000000 0.000000 0.000000 0.000000 0.000000 -0.000000 0.465947 91.876600 -435.907000 89.295300 -7.780780 1.860130 15.735700 0.000005 -0.000001 103.896000 83.361700 -103.686000 8.984550 -0.406207 -0.000000 5.122410 3.177090 0.278942 16.377300 -0.000001 -0.000001 0.228173 -0.980626 -0.347870 6.456720 -0.000001 -0.000000 1.686050 -3.786590 -2.215310 12.994200 -0.242716 4.980390 -88.823000 -3.162000 -69.571400 5.348090 -0.000007 -0.000001 -76.728700 23.944300 1.057220 24.328600 0.000019 0.000005 1.731860 7.659370 -12.781100 22.291600 -0.000001 0.000005 8.736530 5.391400 -2.660100 12.994500 -0.242716 -4.980390 88.857500 4.295880 -75.091400 -5.348130 -0.000001 -0.000004 -53.867500 38.126900 -36.774700 -24.328900 0.000322 -0.000009 2.293680 3.946490 -30.212200 -22.291500 -0.000108 -0.000004 13.052200 5.400820 -2.963350 -2.192480 -6.469440 -0.000000 -178.559000 -7.900300 -22.923300 39.081100 -0.000007 -0.000012 -0.006809 0.013468 26.819100 40.985400 -0.000006 -0.000013 3.541420 -3.282590 -52.974100 11.754300 -0.000000 0.000003 -0.004832 -0.059835 -19.011200 -2.192510 6.469440 -0.000001 -178.006000 16.309600 -176.182000 -39.081100 -0.002282 -0.040193 0.013985 -0.034354 17.237400 -40.985400 0.000008 0.000006 8.905480 5.431680 -68.912700 -11.754300 -0.000006 -0.000006 -0.010355 -0.106269 -20.903300
